<?xml version="1.0" encoding="utf-8"?>
<!-- Generator: Adobe Illustrator 24.2.3, SVG Export Plug-In . SVG Version: 6.00 Build 0)  -->
<svg version="1.1" xmlns="http://www.w3.org/2000/svg" xmlns:xlink="http://www.w3.org/1999/xlink" x="0px" y="0px"
	 viewBox="0 0 1200 1200" style="enable-background:new 0 0 1200 1200;" xml:space="preserve">
<style type="text/css">
	.st0{fill:#6DCE80;stroke:#434B56;stroke-width:4;stroke-miterlimit:10;}
	.st1{fill:#434B56;stroke:#434B56;stroke-width:5;stroke-miterlimit:10;}
	.st2{fill:#68675A;}
	.st3{fill:#F9BA8F;stroke:#434B56;stroke-width:3.85;stroke-linecap:round;stroke-linejoin:round;stroke-miterlimit:10;}
	.st4{fill:none;stroke:#434B56;stroke-width:3.85;stroke-linecap:round;stroke-linejoin:round;stroke-miterlimit:10;}
	.st5{fill:none;stroke:#FFFFFF;stroke-width:3.85;stroke-linecap:round;stroke-linejoin:round;stroke-miterlimit:10;}
	.st6{fill:#F16A6D;stroke:#434B56;stroke-width:3.85;stroke-linecap:round;stroke-linejoin:round;stroke-miterlimit:10;}
	.st7{fill:#ACD263;stroke:#434B56;stroke-width:3.85;stroke-linecap:round;stroke-linejoin:round;stroke-miterlimit:10;}
	.st8{fill:#FAE58F;}
	.st9{fill:#FFFFFF;}
	.st10{fill:#DABE92;}
	.st11{fill:#BAA1B6;}
	.st12{fill:#BAA1B6;stroke:#434B56;stroke-width:3.85;stroke-linecap:round;stroke-linejoin:round;stroke-miterlimit:10;}
	.st13{fill:#C5DC76;stroke:#434B56;stroke-width:3.85;stroke-linecap:round;stroke-linejoin:round;stroke-miterlimit:10;}
	.st14{fill:#85986F;stroke:#434B56;stroke-width:3.85;stroke-linecap:round;stroke-linejoin:round;stroke-miterlimit:10;}
	.st15{fill:#BAA1B6;stroke:#434B56;stroke-width:10;stroke-linecap:round;stroke-linejoin:round;stroke-miterlimit:10;}
	.st16{fill:none;stroke:#434B56;stroke-width:10;stroke-linecap:round;stroke-linejoin:round;stroke-miterlimit:10;}
	.st17{fill:#C5DC76;stroke:#434B56;stroke-width:10;stroke-linecap:round;stroke-linejoin:round;stroke-miterlimit:10;}
	.st18{fill:#85986F;stroke:#434B56;stroke-width:10;stroke-linecap:round;stroke-linejoin:round;stroke-miterlimit:10;}
	.st19{fill:#F69B77;}
	.st20{fill:#F9BA8F;}
	.st21{fill:#FAE58F;stroke:#434B56;stroke-width:3.85;stroke-linecap:round;stroke-linejoin:round;stroke-miterlimit:10;}
	.st22{fill:#C5DC76;}
	.st23{fill:#85986F;}
	.st24{fill:#E5C7B4;}
	.st25{fill:#B08C7E;}
	.st26{fill:#E4E4E6;stroke:#434B56;stroke-width:3.85;stroke-linecap:round;stroke-linejoin:round;stroke-miterlimit:10;}
	.st27{fill:none;stroke:#C5DC76;stroke-width:3.85;stroke-linecap:round;stroke-linejoin:round;stroke-miterlimit:10;}
	.st28{fill:#DEB198;stroke:#434B56;stroke-width:3.85;stroke-linecap:round;stroke-linejoin:round;stroke-miterlimit:10;}
	.st29{fill:#B08C7E;stroke:#434B56;stroke-width:3.85;stroke-linecap:round;stroke-linejoin:round;stroke-miterlimit:10;}
	.st30{fill:#F16A6D;}
	.st31{fill:#ACD263;}
	.st32{fill:#6AAA95;stroke:#434B56;stroke-width:3.85;stroke-linecap:round;stroke-linejoin:round;stroke-miterlimit:10;}
	.st33{fill:#806875;}
	.st34{fill:none;stroke:#F9BA8F;stroke-width:3.85;stroke-linecap:round;stroke-linejoin:round;stroke-miterlimit:10;}
</style>
<g id="background">
</g>
<g id="Logo">
	<g>
		<g>
			<path class="st0" d="M1025.6,654c-5-3.3-12.1-1.4-15.7,4.1l-48.2,79.2c-3.6,5.6-10.8,7.3-16.1,3.9c-5.2-3.4-6.5-10.7-2.9-16.3
				l50.7-77.6c3.6-5.6,3.3-12.3-0.8-14.9c-4.1-2.7-10.4-0.3-14,5.2L928,715.3c-3.6,5.6-10.8,7.3-16.1,3.9
				c-5.2-3.4-6.5-10.7-2.9-16.3l50.7-77.6c3.6-5.6,3.3-12.3-0.8-14.9c-4.1-2.7-10.4-0.3-14,5.3l-50.7,77.6
				c-3.6,5.6-10.8,7.3-16.1,3.9c-5.2-3.4-6.5-10.7-2.9-16.3l53.2-75.9c3.6-5.6,2.5-12.8-2.5-16c-5-3.3-12.3-1.6-16.3,3.7
				l-91.6,119.8c-20.3,26.4-23.1,71.8,4,89.5l0.6,0.4C763,858.5,684.4,890,601,890c-88.1,0-170.9-35.2-231.7-97.5
				c30.7-33.9,36.3-85.5,10.4-125.9c-31-48.4-131.2-118.6-179.6-87.6c-48.4,31-26.6,151.4,4.4,199.8c25.9,40.5,75.1,56.9,118.9,43.1
				c71.5,77.6,171.3,121.6,277.6,121.6c101.6,0,197.2-40.1,267.8-111.3l3.4,2.2c27.1,17.7,67.6-3.1,83.6-32.3l73-131.9
				C1032.1,664.6,1030.7,657.3,1025.6,654z"/>
			<path class="st0" d="M578.5,845.5c149.6,54.2,198.3-102.2,165.1-156.6c-39,48.1-170.7-9.6-179.4,118.4
				c41.7,15.3,106.7-31.9,106.7-31.9C639.8,826.4,578.5,845.5,578.5,845.5z"/>
			<path class="st0" d="M252.6,505.7c7.7,0,14-6.3,14-14c0-7.7-6.3-14-14-14c-7.7,0-14,6.3-14,14
				C238.6,499.4,244.9,505.7,252.6,505.7z"/>
			<path class="st0" d="M443.3,365.1c0-12.6-10.2-22.7-22.7-22.7c-12.6,0-22.7,10.2-22.7,22.7c0,12.6,10.2,22.7,22.7,22.7
				C433.1,387.8,443.3,377.6,443.3,365.1z"/>
			<path class="st0" d="M353.3,268.5c15.6,0,28.2-12.6,28.2-28.2c0-15.6-12.6-28.2-28.2-28.2c-15.6,0-28.2,12.6-28.2,28.2
				C325.1,255.9,337.7,268.5,353.3,268.5z"/>
			<path class="st0" d="M402.3,458.4c0,8.5,6.9,15.4,15.4,15.4c8.5,0,15.4-6.9,15.4-15.4s-6.9-15.4-15.4-15.4
				C409.2,443,402.3,449.9,402.3,458.4z"/>
			<path class="st0" d="M501,822.4c-5.3,4-6.3,11.5-2.3,16.8c4,5.3,11.5,6.3,16.8,2.3c5.3-4,6.3-11.5,2.3-16.8
				C513.8,819.5,506.3,818.4,501,822.4z"/>
			<path class="st0" d="M705.2,294c8.5,0,15.4-6.9,15.4-15.4c0-8.5-6.9-15.4-15.4-15.4c-8.5,0-15.4,6.9-15.4,15.4
				C689.8,287.1,696.7,294,705.2,294z"/>
			<path class="st0" d="M574.3,160.2c8.5,0,15.4-6.9,15.4-15.4c0-8.5-6.9-15.4-15.4-15.4c-8.5,0-15.4,6.9-15.4,15.4
				C558.9,153.3,565.8,160.2,574.3,160.2z"/>
			<path class="st0" d="M1010.2,571.8c-11.5,0-20.9,9.3-20.9,20.9c0,11.5,9.3,20.9,20.9,20.9c11.5,0,20.9-9.3,20.9-20.9
				C1031.1,581.1,1021.8,571.8,1010.2,571.8z"/>
			<path class="st0" d="M689.8,344.2c-11.5,0-20.9,9.3-20.9,20.9c0,11.5,9.3,20.9,20.9,20.9c11.5,0,20.9-9.3,20.9-20.9
				C710.7,353.5,701.3,344.2,689.8,344.2z"/>
			<path class="st0" d="M945.3,535.1c-6.2,0-11.2,5-11.2,11.2c0,6.2,5,11.2,11.2,11.2s11.2-5,11.2-11.2
				C956.5,540.2,951.5,535.1,945.3,535.1z"/>
			<path class="st0" d="M849.6,431.7c-6.2,0-11.2,5-11.2,11.2c0,6.2,5,11.2,11.2,11.2c6.2,0,11.2-5,11.2-11.2
				C860.8,436.7,855.8,431.7,849.6,431.7z"/>
			<path class="st0" d="M695.9,485.8c-4.3,0-7.7,3.5-7.7,7.7c0,4.3,3.5,7.7,7.7,7.7c4.3,0,7.7-3.5,7.7-7.7
				C703.6,489.3,700.1,485.8,695.9,485.8z"/>
			<path class="st0" d="M646.4,536.9c-8.2,0-14.8,6.6-14.8,14.8c0,8.2,6.6,14.8,14.8,14.8s14.8-6.6,14.8-14.8
				C661.2,543.5,654.6,536.9,646.4,536.9z"/>
			<path class="st0" d="M631.1,600c-5.5,0-9.9,4.5-9.9,9.9c0,5.5,4.4,9.9,9.9,9.9s9.9-4.5,9.9-9.9C641.1,604.5,636.6,600,631.1,600z
				"/>
			<path class="st0" d="M885.5,349.2c-6.2,0-11.2,5-11.2,11.2c0,6.2,5,11.2,11.2,11.2c6.2,0,11.2-5,11.2-11.2
				C896.8,354.2,891.7,349.2,885.5,349.2z"/>
			<path class="st0" d="M888.7,560.5c0-6.2-5-11.2-11.2-11.2c-6.2,0-11.2,5-11.2,11.2c0,6.2,5,11.2,11.2,11.2
				C883.7,571.8,888.7,566.7,888.7,560.5z"/>
			<path class="st0" d="M442.4,535.1c0-6.2-5-11.2-11.2-11.2c-6.2,0-11.2,5-11.2,11.2c0,6.2,5,11.2,11.2,11.2
				C437.4,546.4,442.4,541.4,442.4,535.1z"/>
			<path class="st0" d="M603.9,557.6c0-6.2-5-11.2-11.2-11.2c-6.2,0-11.2,5-11.2,11.2c0,6.2,5,11.2,11.2,11.2
				C598.9,568.9,603.9,563.8,603.9,557.6z"/>
			<path class="st0" d="M639.7,256.9c9.4,0,17-7.6,17-17c0-9.4-7.6-17-17-17c-9.4,0-17,7.6-17,17
				C622.7,249.3,630.3,256.9,639.7,256.9z"/>
			<path class="st0" d="M266.6,546.1c0,11.4,9.2,20.6,20.6,20.6c11.4,0,20.6-9.2,20.6-20.6c0-11.4-9.2-20.6-20.6-20.6
				C275.9,525.5,266.6,534.7,266.6,546.1z"/>
			<path class="st0" d="M468.8,786c-11.3-8.2-25.6-9.2-37.5-3.9c-1.3,12.9,4.1,26.2,15.3,34.4c9,6.5,19.8,8.5,29.9,6.4L456.7,801
				l27.4,11.5C483,802.3,477.8,792.5,468.8,786z"/>
			<path class="st0" d="M181.5,524.2l7.4-30.3l6.1,30.8c8.3-7,13.7-17.3,14.1-29c0.5-14.7-7.1-27.8-18.7-35.1
				c-12.1,6.5-20.5,19-21,33.7C169,506,173.7,516.7,181.5,524.2z"/>
			<path class="st0" d="M610.6,331.6l19.4-31l-4.5,36.5c11.8-4.7,21.6-14.2,26.4-27.1c6-16.2,2.4-33.5-7.9-45.9
				c-15.8,2.7-29.8,13.6-35.8,29.8C603.4,306.7,604.7,320.3,610.6,331.6z"/>
			<path class="st0" d="M367.8,607.7l11.9-34.6l3.8,36.6c10.4-7.3,17.9-18.7,19.6-32.3c2.2-17.1-5.2-33.2-18-42.9
				c-14.8,6.2-26,20-28.2,37.1C355.2,585.1,359.5,598,367.8,607.7z"/>
			<path class="st0" d="M499.5,409c-14.5-11.2-33.2-13-48.9-6.6c-2.3,16.9,4.3,34.5,18.8,45.7c11.5,8.9,25.7,11.9,38.9,9.5
				L483,428.1l35.5,16.1C517.4,430.9,511,417.9,499.5,409z"/>
			<path class="st0" d="M435.6,173.8l-16.2,21.4c9.2,1.3,18.9-1.1,26.5-7.5c9.7-8.1,13.7-20.3,11.8-31.9c-11-4-23.8-2.3-33.5,5.8
				c-7.7,6.4-11.8,15.5-12.2,24.8L435.6,173.8z"/>
			<path class="st0" d="M950.5,320.3c-7.8-6.6-18.2-8.1-27.1-4.9c-1.7,9.4,1.6,19.4,9.4,25.9c6.2,5.2,14,7.3,21.5,6.2l-13.4-17.1
				l19.4,9.9C960,332.9,956.7,325.5,950.5,320.3z"/>
			<path class="st0" d="M750.4,450.9c1.8,11.5,9.7,20.6,19.8,24.5c8.4-6.8,13.1-17.9,11.3-29.4c-1.4-9.2-6.7-16.7-13.9-21.4
				l-1.2,24.7l-9.4-23C751.6,432.9,749,441.7,750.4,450.9z"/>
			<path class="st0" d="M641.7,650.2c-10.2-5.6-22.2-4.9-31.5,0.8c0.3,10.9,6.2,21.3,16.4,26.9c8.1,4.4,17.3,4.9,25.5,2.1l-18.8-16
				l24,6.6C655.2,662.1,649.8,654.6,641.7,650.2z"/>
			<path class="st0" d="M527.4,511.9c-11.7-6.4-25.5-5.6-36.1,0.9c0.3,12.5,7.1,24.4,18.8,30.8c9.3,5.1,19.9,5.6,29.2,2.4
				l-21.6-18.4l27.5,7.6C542.9,525.6,536.7,517,527.4,511.9z"/>
			<path class="st0" d="M684.7,156.8c-10.2-5.6-22.2-4.9-31.5,0.8c0.3,10.9,6.2,21.3,16.4,26.9c8.1,4.4,17.3,4.9,25.5,2.1l-18.8-16
				l24,6.6C698.2,168.8,692.8,161.3,684.7,156.8z"/>
		</g>
	</g>
	<g>
		<g>
			<path class="st1" d="M349.3,927.1c1.1,0.6,1.9,1.5,2.4,2.6c0.5,1.1,0.4,2.2-0.1,3.3c-0.5,1-1.4,1.7-2.6,1.9
				c-1.2,0.2-2.4,0.1-3.5-0.6c-10.4-5.7-20.7-11.7-30.8-18.1c-17.5,27.8-35,55.7-52.3,83.6c-0.7,1.1-1.8,1.7-3.4,1.9
				c-1.6,0.2-3.2-0.2-4.6-1.2c-1.6-1-2.6-2.3-3.2-3.9c-0.5-1.6-0.5-2.9,0.2-3.9c18-27.5,36-55,54-82.5c-9.9-6.6-19.7-13.5-29.2-20.8
				c-1.1-0.8-1.8-1.8-2-3.1c-0.3-1.2-0.1-2.3,0.6-3.2c0.7-0.9,1.7-1.4,2.9-1.4c1.2,0,2.4,0.3,3.4,1.1
				C302.9,899.6,325.8,914.3,349.3,927.1z"/>
			<path class="st1" d="M417.5,962.2c1.3,35.5,5,71.5,11.4,107.5c0.3,2.3,0.4,3.9,0.2,4.7c-0.3,1.2-1.2,2.2-2.6,2.7
				c-1.4,0.6-2.9,0.7-4.6,0.2c-3.1-0.9-4.9-2.9-5.2-5.8c-1.7-10.6-3.1-21.2-4.4-31.8c-21.8-7.2-43.4-15.6-64.5-25.3
				c-8.1,6.9-16.3,13.7-24.7,20.4c-2.3,1.9-4.9,2.2-7.7,0.8c-1.5-0.8-2.6-1.9-3.3-3.3c-0.7-1.4-0.7-2.7-0.1-3.8
				c0.3-0.6,1.2-1.5,2.8-2.8c29.1-22.2,56.3-46,81.3-71.3c2.1-2.2,4.2-2.8,6.5-1.9c3.7,1.5,7.5,3,11.3,4.4c1.1,0.4,2,1.1,2.6,2.2
				C417.2,960,417.6,961,417.5,962.2z M354.7,1008.4c18.6,8.4,37.5,15.8,56.7,22.2c-2.4-22.8-3.8-45.6-4.2-68.1
				c-1.1-0.4-2.2-0.9-3.3-1.3C388.3,977.5,371.9,993.3,354.7,1008.4z"/>
			<path class="st1" d="M558,997.6c-9.5-0.8-19.1-1.8-28.6-3.1c-14.1-1.9-26.5,0.7-38.1,7.9c-11.6,7.3-19.2,16.8-22,29.2
				c-3,13-0.3,25.3,8.9,36.8c9.2,11.5,21.8,18.5,37.2,20.6c16.3,2.2,30.9,0,43.1-6.3c0.7-10.7,1.4-21.3,2.1-32
				c-13.1-0.9-26.2-2.2-39.2-4c-1.6-0.2-2.9-0.8-3.9-1.8c-1-1-1.3-2.1-1.2-3.4c0.1-1,0.8-1.9,2-2.5c1.2-0.6,2.5-0.8,4.2-0.6
				c14.7,2,29.5,3.4,44.2,4.3c1.5,0.1,2.7,0.6,3.8,1.6c1,1,1.5,2.1,1.4,3.3c-0.6,12.1-1.1,24.2-1.6,36.3c-0.1,2-1.1,3.5-3,4.4
				c-15.6,8.2-33.6,11.1-52.9,8.5c-19.2-2.6-34.7-11.2-45.7-24.9c-11-13.7-14.1-28.2-10.4-43.1c3.7-15,13.1-26.1,27.1-34.1
				c14-8,28.7-10.8,45.2-8.6c9.4,1.3,18.7,2.3,28.1,3c1.4,0.1,2.4,0.6,3.2,1.5c0.8,0.9,1.2,1.9,1.1,2.9c-0.1,1.2-0.6,2.1-1.5,2.8
				C560.5,997.4,559.4,997.7,558,997.6z"/>
			<path class="st1" d="M655,992c16.5,31.4,35.5,62.1,56.9,91.7c1.3,1.9,2.1,3.3,2.2,4.1c0.2,1.3-0.1,2.5-1.1,3.6
				c-1,1.2-2.3,1.9-4,2.2c-3.2,0.5-5.6-0.5-7.1-3c-6.1-8.8-12-17.7-17.7-26.7c-22.5,3.1-45.1,5-67.7,5.5
				c-4.1,9.8-8.4,19.5-12.9,29.2c-1.2,2.8-3.4,4.1-6.4,4.1c-1.7,0-3.1-0.5-4.3-1.5c-1.2-1-1.7-2.1-1.7-3.4c0-0.6,0.4-1.9,1.3-3.8
				c15.9-32.8,29.4-66.1,40.4-99.9c0.9-2.9,2.5-4.4,4.9-4.6c3.9-0.3,7.9-0.6,11.8-1c1.1-0.1,2.2,0.2,3.3,0.8
				C653.8,990.2,654.5,991,655,992z M619.7,1061.1c19.9-0.6,39.8-2.2,59.5-4.9c-12.1-19.5-23.2-39.3-33.3-59.4
				c-1.1,0.1-2.3,0.2-3.4,0.3C635.9,1018.6,628.3,1040,619.7,1061.1z"/>
			<path class="st1" d="M825,946.5c14.4,30.7,28.8,61.3,43.4,91.9c0.6,1.3,0.6,2.7-0.1,4.1c-0.7,1.4-1.9,2.5-3.6,3.2
				c-1.7,0.8-3.2,0.9-4.6,0.5c-1.4-0.4-2.4-1.3-3-2.6c-13.3-29.5-26.5-59.1-39.7-88.7c-6.4,20-14,39.9-23,59.7c-1.2,3-3.2,5-5.8,5.9
				c-2.7,0.9-5.4,0.5-8.2-1.1c-19.2-10.3-37.4-21.5-54.5-33.6c7.6,31.5,15.3,63,23.1,94.4c0.4,1.4,0.1,2.8-0.8,3.9
				c-0.9,1.2-2.2,2-4,2.4c-1.7,0.4-3.3,0.3-4.7-0.4c-1.4-0.7-2.2-1.7-2.5-3.2c-7.5-33.1-14.9-66.1-22.2-99.2
				c-0.3-1.4-0.1-2.7,0.6-3.9c0.7-1.1,1.8-1.9,3.3-2.2c2.1-0.5,4.1-1,6.2-1.4c1.6-0.4,3.6,0.3,6.1,1.9
				c17.1,11.8,35.3,22.8,54.5,32.8c9-19.5,16.7-39.2,23.1-59c0.9-2.8,2.1-4.6,3.7-5.3c1.9-0.9,3.9-1.7,5.8-2.6
				c1.4-0.6,2.7-0.7,4-0.3C823.4,944.3,824.4,945.1,825,946.5z"/>
			<path class="st1" d="M897.8,903.6c29.8,19.5,61.6,37.1,95.2,52.4c2.1,1,3.5,1.9,4,2.5c0.8,1,1,2.2,0.7,3.8
				c-0.4,1.5-1.2,2.8-2.6,3.9c-2.7,2.1-5.3,2.4-7.9,1c-9.8-4.7-19.4-9.6-28.8-14.6c-19,14-38.7,26.8-58.9,38.3
				c0.9,10.6,1.6,21.3,2.2,32c0.2,3-1.1,5.3-3.9,6.7c-1.5,0.8-3,1-4.5,0.8c-1.5-0.3-2.6-1-3.1-2.1c-0.3-0.6-0.5-1.9-0.7-4
				c-1.2-36.5-4.7-72.5-10.6-107.7c-0.6-3,0.2-5.1,2.3-6.4c3.4-2.2,6.9-4.4,10.3-6.7c1-0.7,2.1-1,3.4-0.9
				C895.8,902.6,896.9,903,897.8,903.6z M898.5,981.8c17.7-10.2,35-21.4,51.8-33.6c-20.2-11.1-39.6-23.1-58.3-35.9
				c-1,0.7-2,1.3-3,1.9C893,936.5,896.2,959,898.5,981.8z"/>
		</g>
	</g>
	<g>
		<path class="st6" d="M965.1,493.6c0,17.3,15.1,31.3,33.7,31.3c18.6,0,33.7-14,33.7-31.3c0-9.5-4.6-18.1-11.8-23.8
			c-5.9-4.7-13.6,2-21.9,2c-8.4,0-16-6.7-21.9-2C969.7,475.6,965.1,484.1,965.1,493.6z"/>
		<path class="st6" d="M869.8,481.8c-6.2,16.2,2.9,34.7,20.3,41.3c17.4,6.6,36.5-1.1,42.7-17.3c3.4-8.9,2.2-18.5-2.5-26.5
			c-3.8-6.5-13.4-3-21.2-6c-7.8-3-12.6-12-19.8-9.7C880.5,466.5,873.2,472.9,869.8,481.8z"/>
		<path class="st5" d="M986.5,483.8c0,0-6.2,14,3.1,21.2"/>
		<path class="st7" d="M938.6,378.3c0,0,1.6,22.3-14.3,35.4c0,0-7.6,7-20.4,5.1c0,0-10.5-1.4-14.5,0.1c-1.5,4-1.6-12.8-1.5-16.2
			c0.7-24,24.9-26.7,24.9-26.7c3.4-0.4,7-0.3,9.5,0.3"/>
		<path class="st4" d="M998.9,470c0,0,8.2-93.1-73.3-109.6"/>
		<path class="st4" d="M955.8,378.3c0,0,18.6,44.6-46.3,93.5"/>
		<path class="st4" d="M906.8,400.9c0,0,11.9-23,47-25"/>
		<path class="st5" d="M886.8,483.8c0,0-4.5,11.3,3.4,21.2"/>
	</g>
	<g>
		<g>
			<path class="st8" d="M769.8,299.2c6.5-4.9,13.5-5.7,18-5.6c-3.5-7.1-7.3-13.8-11.3-20.1c-0.2,0.7-0.8,1.3-1.6,1.4
				c-0.4,0-9,1.4-15.2,10.9c-6.2,9.4-7.8,23.8-4.7,41.9C757.2,314.5,762.2,304.9,769.8,299.2z"/>
			<path class="st9" d="M806.5,257.8c6.6-8.4,14-13,22-13.8c-12.5-14.2-58-62-94.1-47.5c-3.9,1.6-5.9,5.5-6.4,8.7
				c-0.5,3.3,0.3,6.4,2.2,8c5.9,5,39.6,34.9,60.6,77.3C793,282.8,798.1,268.5,806.5,257.8z"/>
			<path class="st10" d="M774.1,357.1c0,0-1.2-22.7,1.4-42.8c1.1-8.6,5.3-13.6,9.2-16.5c-3.7,0.3-8.2,1.5-12.5,4.7
				c-8.8,6.6-13.6,19.3-14.4,37.7c8.4,31.9,12.4,34.5,13.2,34.7C772.2,374.1,773.8,365.6,774.1,357.1z"/>
			<path class="st10" d="M849.5,232.3c-12.3-5.3-24.3-0.8-26.4,0c4.9,5,8.5,9.3,10.7,11.8c0.5,0.1,0.9,0.1,1.4,0.1
				c9.4,1.6,22.2,5.6,36.7,15C866.6,245.5,859.1,236.4,849.5,232.3z"/>
			<path class="st8" d="M794.2,296.7C794.2,296.7,794.1,296.7,794.2,296.7c-0.1,0.3-0.2,0.4-0.3,0.5c11.1,24.6,17.5,53,11.9,82.9
				c-1.1,5.7-2,11.9-2.9,19l-0.1,0.8c-0.7,5.5-1.1,9.1-7.5,15.3c-0.6,0.6-1,1.4-1,2.2c0,0.6,0.2,1.1,0.7,1.5
				c1.9,1.8,3.9,3.2,5.9,4.1c1.2,0.5,2.5,0,3-1.1c0.4-0.8,0.6-1.4,0.8-1.9c1.1-3.1,1.8-4.2,11.2-9.8c13.2-7.7,23.8-18.2,30.8-30.1
				c10.4-17.8,21.1-42.9,11.4-79.4c-0.1-0.3-0.1-0.7,0-1C840.8,290.2,814.6,280.9,794.2,296.7z"/>
			<path class="st8" d="M809.7,260.3c-7.8,10-12.6,23.5-14.9,31c35.7-23.2,84,17.6,84.5,18c0.2,0.2,12.9,12.2,20.2,6.4
				c8.9-7.1,7.4-19.6-3.6-31.1l-0.6-0.6c-24.3-25.3-46.4-33.4-60.6-35.8C825.5,246.7,817.1,250.7,809.7,260.3z"/>
		</g>
		<g>
			<path class="st4" d="M791.5,297.3c0,0,12.7-55.4,43.7-50.2c32.9,5.5,57.2,31.7,62.3,37c12.5,12.9,13.2,26.3,3.5,34
				c-8.8,7-22.8-6.4-22.8-6.4S826.7,267.4,791.5,297.3z"/>
			<path class="st4" d="M822.3,231.5c0,0,36.6-16.9,53,31"/>
			<path class="st4" d="M774.9,273.7c0,0-35.3,4.9-18.9,67.5c18.5,70.9,20.5,16.8,20.5,16.8s-1.3-22.5,1.4-42.6
				c2-15.3,14.7-18.5,14.7-18.5"/>
			<path class="st4" d="M792.6,297c0,0-34.3-8.4-36.6,44.3"/>
			<path class="st4" d="M834.4,309.2c0,0,8.4,23.5-4.7,58.2"/>
			<path class="st4" d="M833.1,246.8c-16.1-19.4-62.3-66.1-99.2-51.3c-8.1,3.2-10.4,15.3-4.8,20.1c2.2,1.9,91.5,77.4,75,165
				c-1.2,6.3-2.1,12.7-2.9,19.1c-0.7,5.8-0.8,8.9-7,14.9c-1.9,1.9-2.3,4.8-0.4,6.6c1.7,1.6,3.9,3.3,6.5,4.5c2.2,0.9,4.7,0.1,5.7-2.1
				c2.1-4.4-0.2-4.1,11.2-10.8c12.9-7.6,23.9-17.9,31.5-30.8c11.1-18.9,21.3-44.5,11.6-80.9"/>
		</g>
	</g>
	<g>
		<g>
			<path class="st11" d="M597.5,490.4l-1,0.8c-12.3,10.1-30.5,8.3-40.6-4c-10.1-12.3-8.3-30.5,4-40.5c12.3-10.1,30.5-8.3,40.6,3.9
				c3.5,4.2,5.7,9.3,6.3,14.7c-5.5,6.6-8,15.1-7.2,23.4C598.9,489.2,598.1,489.9,597.5,490.4z M649.8,508.1
				c-12.3,10.1-30.5,8.3-40.5-3.9c-10.1-12.3-8.3-30.5,4-40.6c12.3-10.1,30.5-8.3,40.5,4C663.9,479.8,662.1,498,649.8,508.1z
				 M652.2,461.2L652.2,461.2c-10.9-9.2-26.9-10.1-38.9-1.9l-1.7-2c-10.1-12.3-8.3-30.5,4-40.6c12.3-10.1,30.5-8.3,40.5,4
				C666.3,433,664.5,451.2,652.2,461.2z"/>
		</g>
		<g>
			<path class="st12" d="M725.5,424.3c9.3,11.3,7.7,28-3.6,37.3c-11.3,9.3-28,7.7-37.3-3.6c-9.3-11.3-7.7-28,3.6-37.3
				C699.6,411.4,716.3,413,725.5,424.3z"/>
			<path class="st4" d="M654.7,466.9c10.7,13,8.8,32.2-4.2,42.9s-32.2,8.8-42.9-4.2c-10.7-13-8.8-32.2,4.2-42.9
				S644,453.9,654.7,466.9z"/>
			<path class="st4" d="M610,458.8c-10.7-13-8.8-32.2,4.2-42.9s32.2-8.8,42.9,4.2c10.7,13,8.8,32.2-4.2,42.9"/>
			<path class="st4" d="M599.5,490.8c-0.7,0.7-1.5,1.5-2.3,2.1c-13,10.7-32.2,8.8-42.9-4.2c-10.7-13-8.8-32.2,4.2-42.9
				c13-10.7,32.2-8.8,42.9,4.2c3.8,4.7,6.1,10.2,6.7,15.8"/>
			<path class="st4" d="M720.9,438.6c2.9,3.5,2.3,8.6-1.1,11.4c-3.5,2.8-8.6,2.4-11.4-1.1c-2.8-3.5-2.4-8.6,1.1-11.4
				C712.9,434.7,718,435.2,720.9,438.6z"/>
			<path class="st4" d="M628.4,476.4c3.3,4,2.7,9.9-1.3,13.2c-4,3.3-9.9,2.7-13.2-1.3c-3.3-4-2.7-9.9,1.3-13.2
				C619.3,471.8,625.2,472.4,628.4,476.4z"/>
			<path class="st4" d="M640.7,423.4c3.3,4,2.7,9.9-1.3,13.2c-4,3.3-9.9,2.7-13.2-1.3c-3.3-4-2.7-9.9,1.3-13.2
				C631.5,418.9,637.4,419.4,640.7,423.4z"/>
			<path class="st4" d="M577.8,465.6c3.3,4,2.7,9.9-1.3,13.2c-4,3.3-9.9,2.7-13.2-1.3c-3.3-4-2.7-9.9,1.3-13.2
				S574.5,461.6,577.8,465.6z"/>
			<path class="st13" d="M594.6,410.2c0,0-25.9-17.9-5-53.4c0,0,5.4-11.9,3.8-18.2c0,0,57.8,31.4,15.4,66.2"/>
			<path class="st14" d="M581.4,414.3c0,0-9.5-21.8-39-11.5c0,0-9.7,2.3-14.1,0.2c0,0,14.9,47.5,46.9,21.1"/>
			<path class="st4" d="M601.4,371.1c0,0-10.9,17.2-1.8,51.7"/>
		</g>
	</g>
	<g>
		<g>
			<path class="st20" d="M235.6,326.7c19.5-15.7,43.1-18.6,64.8-7.8c20.1,10,30.6,20,34.9,33.5c0.3,1,1.4,1.5,2.4,1.2
				c1-0.3,1.5-1.4,1.2-2.4c-3-9.4-8.7-17.2-18.1-24.4c2.9,0.6,5.8,1.4,8.7,2.4c34.1,12.1,45.9,43.4,31.5,83.7
				c-15.1,42.4-39.6,56.6-77.3,45c-2.2-0.7-4.2-1.5-6.1-2.4c23.8-0.2,43-15.4,55.3-44.5c0.4-1,0-2.1-1-2.5c-0.9-0.4-2.1,0-2.5,1
				c-8.9,21-30.2,53.8-74.5,38.1c-26-9.3-41.5-23-46-40.8C201.6,377.7,212.3,345.6,235.6,326.7z"/>
		</g>
		<g>
			<path class="st4" d="M337.5,351.2c-4.9-15.2-17.3-25.3-35.9-34.6c-53.5-26.6-108.8,32-94.1,90.1c6.2,24.6,31.2,36.4,47.2,42.1
				c37.9,13.5,63.2-6.6,76.9-39.1"/>
			<path class="st4" d="M269.7,452.6c4.1,2.5,8.7,4.9,14,6.6c44.2,13.7,66.7-9.6,79.6-46.1c13-36.5,6.4-72.2-32.7-86.1
				c-4.6-1.6-9.1-2.8-13.4-3.4"/>
			<path class="st4" d="M340.9,288.3c0,0-30.3,11-24.7,33.7"/>
			<path class="st13" d="M319.3,302.1c0,0,8.8-38-47.5-44.4C271.8,257.8,264,299.3,319.3,302.1z"/>
			<path class="st5" d="M283.2,330.1c0,0-13.3-2.1-23.6,6.6"/>
		</g>
	</g>
	<g>
		<g>
			<path class="st9" d="M497.3,674.8l24-14c-9.9-4.7-19.1-9.6-26.5-13.8C494.7,651.9,494.8,663,497.3,674.8z"/>
			<path class="st9" d="M549,699.1l-22.3-34l-8.6,43.7c0,0,0,0,0,0c0.1,0.1,0.2,0.2,0.4,0.2C528.6,714.9,539.8,708.1,549,699.1z"/>
			<path class="st9" d="M514.9,706.8l8.5-43.2l-25.3,14.8C500.9,689.1,506,700,514.9,706.8z"/>
			<path class="st8" d="M476.8,638.9c0.1-2.1,1.8-3.8,3.8-3.8c0.7,0,1.4,0.2,2,0.6c2.7,1.6,6.5,4,11.3,6.8c0,0,0.1,0,0.1,0
				c8.4,4.8,19.5,10.8,31.5,16.4c0.2,0.1,0.4,0.2,0.6,0.3c0.1,0.1,0.2,0.1,0.3,0.2c0.1,0,0.2,0.1,0.3,0.1c3.5,1.6,7.1,3.2,10.8,4.7
				c7.5-26.9,2.3-41.5-3.8-52.1c-0.3-0.5-0.3-1.1-0.1-1.6c2.3-5.2,1.5-10.9-2.1-14.5c-3.6-3.6-9.3-4.4-14.5-2.1
				c-0.5,0.2-1.1,0.2-1.6-0.1c-24.1-13.8-58.7-6.7-82.3,16.9c-23.6,23.6-30.7,58.2-16.9,82.3c0.3,0.5,0.3,1.1,0.1,1.6
				c-2.3,5.2-1.5,10.9,2.1,14.5c3.6,3.6,9.3,4.5,14.5,2.1c0.5-0.2,1.1-0.2,1.6,0.1c17.7,10.1,40.6,9.8,60.2-0.8
				C476.2,686.7,476.2,651.1,476.8,638.9z"/>
			<path class="st9" d="M566.3,677c-11.5-2.4-23.8-6.9-35.5-12l20.6,31.5C558.4,689.1,563.9,680.8,566.3,677z"/>
			<path class="st10" d="M582.3,682.1c-5.3,9.9-20.7,35.6-41.2,44.2c20.2-1.8,35.8-13,42.6-18.7c1.9-1.7,3.1-4.2,3.1-6.9
				C587,691.1,584.5,685.3,582.3,682.1z"/>
			<path class="st8" d="M579.6,679.8c0.2-0.3,0-0.6,0-0.7c-0.1-0.1-0.2-0.2-0.3-0.2c-3-0.2-6.1-0.6-9.3-1.1
				c-3.8,6.3-23.3,37.1-43.5,37.1c-3.3,0-6.6-0.8-9.8-2.7c-26.9-15.4-25.8-59.5-25.3-67.2c-4.4-2.6-8-4.8-10.6-6.3c0,0-0.1,0-0.1,0
				c-0.2,0-0.4,0.2-0.4,0.4c-0.7,14.5-0.6,63.3,32,82.2c5.1,2.9,10.3,4.4,15.5,4.4C553.3,725.7,573.9,690.6,579.6,679.8z"/>
		</g>
		<g>
			<g>
				<path class="st4" d="M481.9,637.2c12.5,7.8,63.1,37.9,97.7,40c1.6,0.1,2.6,2,1.8,3.5c-7.2,13.5-35.8,61.9-69.7,42.2
					C478,703.2,478.1,653,478.8,639C478.9,637.3,480.6,636.3,481.9,637.2z"/>
				<path class="st4" d="M580.7,677.5c0,0,8.4,5.6,8.2,23.2c0,3.2-1.4,6.2-3.7,8.2c-8.7,7.4-32.7,24.5-62.6,18"/>
				<path class="st4" d="M493.4,644c0,0-3.9,50.4,24.4,66.7c23.7,13.6,51.5-34.8,51.5-34.8"/>
				<line class="st4" x1="526" y1="660.9" x2="516.6" y2="708.5"/>
				<line class="st4" x1="525.3" y1="660.6" x2="496.3" y2="677.5"/>
				<line class="st4" x1="527.2" y1="662.4" x2="550.7" y2="698.2"/>
			</g>
			<g>
				<path class="st4" d="M494.4,712.6c-20.5,9.8-43.2,10.1-60.5,0.2c-5.7,2.6-12.2,1.8-16.5-2.4c-4.3-4.3-5-10.8-2.4-16.5
					c-14-24.4-7.6-59.6,17.2-84.4c24.8-24.8,59.9-31.2,84.4-17.2c5.7-2.6,12.2-1.8,16.5,2.4c4.3,4.3,5,10.8,2.5,16.5
					c6,10.4,8.2,22.7,7,35.4"/>
				<path class="st5" d="M446.4,623.7c13-13,29.7-20.1,45.1-20.1"/>
				<path class="st7" d="M544.2,585.1c0,0,42.3-5,44,44.5C588.2,629.6,548.9,633.9,544.2,585.1z"/>
				<path class="st4" d="M547.6,573.4c0,0-1.2,15.8-14.6,21.3"/>
				<path class="st5" d="M434.2,637.3c-1.1,1-2,2.2-2.6,3.5"/>
			</g>
		</g>
	</g>
	<g>
		<g>
			<path class="st30" d="M570.5,260.2c0,35.9-47.4,83-64.7,83c-14.6,0-64.7-47.1-64.7-83c0-10.6,2.6-19.5,7.7-26.4
				c0.1-0.2,0.2-0.4,0.3-0.6c6.5-2.3,14.9-4,23.3-1.4c7,2.2,7.2,17.7,7.3,25.1l0,1.9c0,0.5,0.3,1.1,0.8,1.3c0.3,0.2,0.6,0.3,0.9,0.3
				c0.2,0,0.4,0,0.7-0.1c5.4-2.4,10.6-10.9,14.7-17.8c1.7-2.8,3.8-6.4,4.6-6.8c3.2-1.5,9.7,4.1,15.5,9c5.4,4.6,11,9.3,15.8,10.5
				c0.5,0.1,1,0,1.4-0.3c0.4-0.3,0.6-0.7,0.7-1.2c0.5-8.4,0.3-16-0.6-22.6c4.6,0.8,10.7,2.6,17.2,4.5c5.1,1.5,10.4,3.1,15.1,4.1
				C569,245.5,570.5,252.4,570.5,260.2z"/>
		</g>
		<g>
			<path class="st7" d="M508,200.5c-1.4-1.8,22.1-5.6,53.8,2.2l-14.3,7c11.2,5.6,21.5,14.6,26.9,29c-11.6-1-32.1-9.3-42.3-10.2
				c1.2,7.7,1.3,16.3,0.8,24.4c-10-2.4-25-22.9-32.4-19.4c-2.9,1.4-11.3,21.1-19.3,24.6c-0.1-7.9,0.4-25.8-8.4-28.5
				c-19.5-6-37.9,9.6-37.7,5.7l16-13.9c4.3-4.1,1.1-8-9.5-9.5c6.6-2.3,23.3-10,30.8-11.3c7.7-1.3,13.2,2,30.3,0"/>
			<path class="st5" d="M465.5,264.7c0.4,1.3,0.6,2.6,0.9,3.9"/>
			<path class="st5" d="M469.8,289.4c0.6,1.3,1.5,2.5,2.6,3.5"/>
			<path class="st5" d="M494.1,274.7c-0.2,3.4,1.8,6.6,2.2,10"/>
			<path class="st5" d="M502.8,305.5c0,2.7-0.5,5.4,0.9,7.8"/>
			<path class="st5" d="M524.4,271.6c-0.5,2.3-0.7,4.7,0,6.9"/>
			<path class="st5" d="M547,259.9c0,2.6,0,5.2,0,7.8"/>
			<path class="st5" d="M537.5,295.5c-1.8,3.1-3.1,6.6-5.2,9.5"/>
			<path class="st4" d="M515.8,169.7c0,0-16.5,13-11.1,46.4"/>
			<path class="st4" d="M566.9,236.5c3.4,6.2,5.2,13.8,5.2,23c0,36.7-48.1,84.6-66.4,84.6c-15.6,0-66.4-47.9-66.4-84.6
				c0-11.5,2.9-20.5,8-27.4"/>
		</g>
	</g>
	<g>
		<g>
			<path class="st19" d="M759.8,635.2c-0.6-3.2,0.2-6.2,2.2-8.7c3.2-3.9,9-5,13.4-2.4c11.8,6.8,23.3,9.5,34.9,7.9
				c1.5-2.5,6.9-12.5,6.9-25.9c0-33.1-28.5-60-63.6-60c-7.3,0-14.4,1.1-21.2,3.4c-0.5,0.2-1,0.1-1.5-0.2c-0.3,4.4-1.6,9.4-4.6,14.3
				c-5.7,9.3-16.3,15.9-31.6,19.6c-3.2,7.3-4.9,15-4.9,22.9c0,33.1,28.5,60,63.6,60c6.9,0,13.7-1,20.2-3.1c0.2-0.1,0.3-0.1,0.5-0.1
				C765.7,655.4,761.6,644.8,759.8,635.2z"/>
			<path class="st8" d="M842.9,628.6c-2.2-2.7-6.1-3.4-9.2-1.7c-20.1,11.7-39.9,11.7-60,0c-1.1-0.7-2.3-1-3.6-1
				c-2.1,0-4.2,1-5.6,2.7c-1.4,1.7-1.9,3.8-1.5,5.9c3.1,15.9,12.6,34.8,40.7,34.8c28.1,0,37.6-18.9,40.7-34.8
				C844.8,632.4,844.3,630.3,842.9,628.6z"/>
		</g>
		<g>
			<path class="st4" d="M818.1,615.7c0,0,0.7-5,0.7-10.2c0-34.1-29.2-61.7-65.3-61.7c-7.6,0-14.9,1.2-21.7,3.5"/>
			<path class="st4" d="M693.5,581c-3.5,7.5-5.4,15.8-5.4,24.5c0,34.1,29.2,61.7,65.3,61.7c7.2,0,14.2-1.1,20.7-3.2"/>
			<path class="st4" d="M753.4,543.9c0,0,0.9-28.3-22.4-44"/>
			<path class="st7" d="M767.8,511.6c0,0,17.6-11.4,35.9,11.8c0,0-25.3,20.5-47-8.7"/>
			<path class="st4" d="M778.4,519.4c-29.7-3.4-42.4-15.6-42.4-15.6"/>
			<path class="st13" d="M727.4,534.5c0,0,16.5,42.4-48.6,49c0,0-16.4-57.5,48.3-63.7"/>
			<path class="st4" d="M739.1,506.8c0,0-21.6,34.1-43.3,56.3"/>
			<g>
				<path class="st4" d="M761.3,634.4c-1.4-7.5,6.6-13.2,13.1-9.4c7.6,4.5,17.8,8.6,29.2,8.6s21.5-4.1,29.2-8.6
					c6.6-3.8,14.6,1.9,13.1,9.4c-3.1,16.1-12.9,36.1-42.3,36.1C774.2,670.5,764.4,650.5,761.3,634.4z"/>
				<line class="st4" x1="803.6" y1="648.8" x2="803.6" y2="655"/>
				<line class="st4" x1="786.4" y1="646.4" x2="784.5" y2="652.3"/>
				<line class="st4" x1="820.9" y1="646.6" x2="822.8" y2="652.5"/>
			</g>
		</g>
		<g>
			<path class="st34" d="M713.2,602.4c0.3,0,0.6,0,0.8,0"/>
			<path class="st34" d="M727.3,600.7c1.4,0,2.8,0,4.2,0"/>
			<path class="st34" d="M741.5,582.4c0.6,0,1.1,0,1.7,0"/>
			<path class="st34" d="M782.3,594.9c0.3,0,0.6,0,0.8,0"/>
			<path class="st34" d="M785.6,572.4c0.6,0,1.1,0,1.7,0"/>
			<path class="st34" d="M754,602.4c0.8,0,1.7,0,2.5,0"/>
			<path class="st34" d="M761.5,579.9c0.8,0,1.7,0,2.5,0"/>
			<path class="st34" d="M737.3,636.5c-1.5,0,1.4,0,1.7,0"/>
		</g>
	</g>
</g>
<g id="Layer_3">
</g>
<g id="Layer_4">
</g>
</svg>
